<svg width="1920" height="431" viewBox="0 0 1920 431" fill="none" xmlns="http://www.w3.org/2000/svg">
<path d="M-79 429.726V349.27L486 223.248V303.704L-79 429.726Z" stroke="#DD0ED6" stroke-width="2"/>
<path d="M1282 118.305L1542.82 54.0001V136.506L1282 200.811V118.305Z" fill="#DD0ED6"/>
<path d="M1442.18 161.163L1703 96.8577V179.363L1442.18 243.668V161.163Z" fill="#FDE565"/>
<mask id="mask0_710_7" style="mask-type:alpha" maskUnits="userSpaceOnUse" x="1693" y="0" width="468" height="194">
<path d="M1693 100.157L2153.61 0L2160.77 90.2515L1693 193.711V100.157Z" fill="#C4C4C4"/>
</mask>
<g mask="url(#mask0_710_7)">
<mask id="mask1_710_7" style="mask-type:alpha" maskUnits="userSpaceOnUse" x="1703" y="-82" width="445" height="257">
<path d="M1703.46 11.958L2147.55 -81.4464V81.5956L1703.46 175V11.958Z" fill="#C4C4C4"/>
</mask>
<g mask="url(#mask1_710_7)">
<path d="M2119.85 -86.8076C2137.12 -80.255 2172.57 -67.1497 2176.14 -67.1497M2100.19 -82.3399C2114.49 -76.0851 2146.83 -62.8607 2161.84 -60.0014C2176.85 -57.142 2194.9 -55.2358 2202.05 -54.6401M2051.94 -71.6174C2077.55 -68.0432 2132.71 -59.644 2148.44 -54.6401C2164.17 -49.6363 2187.16 -43.6198 2196.69 -41.237M2034.96 -67.1497C2073.08 -58.5121 2150.58 -41.237 2155.59 -41.237C2160.59 -41.237 2175.54 -35.2801 2182.39 -32.3016M1990.28 -54.6401C2026.92 -49.5767 2102.15 -38.7351 2110.02 -35.8757C2117.88 -33.0164 2143.67 -29.3231 2155.59 -27.8339M2161.84 -17.1114C2108.53 -20.6855 1998.15 -27.8339 1983.13 -27.8339C1968.12 -27.8339 1947.1 -41.5348 1938.46 -48.3853M2161.84 -1.02763L1908.08 -32.3016M1842.85 -17.1114L2148.44 13.269M2155.59 28.4592L1977.77 4.33362C1922.67 0.46161 1811.4 -7.10371 1807.11 -6.38888C1802.82 -5.67404 1736.22 11.7798 1703.46 20.4174M1703.46 37.3947L1807.11 13.269C1862.21 15.6518 1973.48 20.4174 1977.77 20.4174C1983.13 20.4174 2131.46 41.8624 2137.72 42.7559C2142.72 43.4707 2146.95 43.0538 2148.44 42.7559M2148.44 61.5203C2146.65 62.116 2141.29 63.1287 2134.14 62.4138C2126.99 61.699 2026.92 39.4796 1977.77 28.4592L1807.11 32.927L1698.09 50.7978M1703.46 62.4138L1977.77 42.7559C2018.58 52.287 2102.15 71.5279 2110.02 72.2428C2117.88 72.9576 2125.21 75.5191 2127.89 76.7105H2148.44M2127.89 94.5813L1977.77 56.159C1934.88 61.5203 1847.85 72.2428 1842.85 72.2428C1837.84 72.2428 1747.84 75.2213 1703.46 76.7105M1703.46 87.433L1809.79 91.9007L1977.77 67.7751L2155.59 118.707M2063.55 108.878L1977.77 81.1782L1807.11 113.346L1680.22 94.5813M1703.46 113.346L1813.36 132.11L1977.77 94.5813L2082.32 132.11M2011.73 132.11L1972.41 113.346L1807.11 154.449L1689.16 132.11M1689.16 160.703L1818.72 179.468" stroke="#D844EB" stroke-width="3"/>
</g>
</g>
</svg>
