<svg width="1920" height="367" viewBox="0 0 1920 367" fill="none" xmlns="http://www.w3.org/2000/svg">
<mask id="mask0_145_159" style="mask-type:alpha" maskUnits="userSpaceOnUse" x="403" y="123" width="469" height="194">
<path d="M403.69 223.163L864.303 123.005L871.458 213.257L403.69 316.716V223.163Z" fill="#C4C4C4"/>
</mask>
<g mask="url(#mask0_145_159)">
<mask id="mask1_145_159" style="mask-type:alpha" maskUnits="userSpaceOnUse" x="414" y="41" width="445" height="258">
<path d="M414.146 134.963L858.237 41.559V204.601L414.146 298.005V134.963Z" fill="#C4C4C4"/>
</mask>
<g mask="url(#mask1_145_159)">
<path d="M830.537 36.1978C847.812 42.7504 883.256 55.8557 886.83 55.8557M810.879 40.6655C825.176 46.9203 857.522 60.1447 872.534 63.004C887.545 65.8633 905.595 67.7696 912.743 68.3653M762.628 51.388C788.243 54.9621 843.404 63.3614 859.13 68.3653C874.857 73.3691 897.851 79.3856 907.382 81.7684M745.651 55.8557C783.775 64.4932 861.275 81.7684 866.279 81.7684C871.283 81.7684 886.235 87.7253 893.085 90.7038M700.974 68.3653C737.609 73.4287 812.845 84.2703 820.708 87.1296C828.571 89.989 854.365 93.6823 866.279 95.1715M872.534 105.894C819.219 102.32 708.837 95.1715 693.825 95.1715C678.814 95.1715 657.786 81.4705 649.148 74.62M872.534 121.978L618.768 90.7038M553.539 105.894L859.13 136.274M866.279 151.465L688.464 127.339C633.362 123.467 522.086 115.902 517.797 116.616C513.508 117.331 446.91 134.785 414.147 143.423M414.147 160.4L517.797 136.274C572.899 138.657 684.175 143.423 688.464 143.423C693.825 143.423 842.153 164.868 848.408 165.761C853.412 166.476 857.641 166.059 859.13 165.761M859.13 184.526C857.343 185.121 851.982 186.134 844.834 185.419C837.685 184.704 737.609 162.485 688.464 151.465L517.797 155.932L408.785 173.803M414.147 185.419L688.464 165.761C729.269 175.292 812.845 194.533 820.708 195.248C828.571 195.963 835.898 198.524 838.579 199.716H859.13M838.579 217.587L688.464 179.164C645.574 184.526 558.543 195.248 553.539 195.248C548.535 195.248 458.526 198.227 414.147 199.716M414.147 210.438L520.478 214.906L688.464 190.78L866.279 241.712M774.244 231.883L688.464 204.184L517.797 236.351L390.915 217.587M414.147 236.351L524.052 255.115L688.464 217.587L793.008 255.115M722.419 255.115L683.103 236.351L517.797 277.454L399.85 255.115M399.85 283.709L529.414 302.473" stroke="#D844EB" stroke-width="3"/>
</g>
</g>
<path d="M-18 246.66L242.823 182.354V264.86L-18 329.165V246.66Z" fill="#DD0ED6"/>
<path d="M150.676 284.143L411.5 219.838V302.343L150.676 366.649V284.143Z" fill="#FDE565"/>
<path d="M820 332.773V252.317L1027.5 205.795V286.251L820 332.773Z" stroke="#D844EB" stroke-width="2"/>
<path d="M1148 254.257V173.801L1919.5 1.24836V81.7044L1148 254.257Z" stroke="#DD0ED6" stroke-width="2"/>
</svg>
