<svg width="768" height="240" viewBox="0 0 768 240" fill="none" xmlns="http://www.w3.org/2000/svg">
<mask id="mask0_73_0" style="mask-type:alpha" maskUnits="userSpaceOnUse" x="369" y="0" width="410" height="170">
<path d="M369.323 87.9757L772.734 0.256592L779 79.3002L369.323 169.911V87.9757Z" fill="#C4C4C4"/>
</mask>
<g mask="url(#mask0_73_0)">
<mask id="mask1_73_0" style="mask-type:alpha" maskUnits="userSpaceOnUse" x="378" y="-72" width="390" height="226">
<path d="M378.48 10.7296L767.421 -71.0753V71.7192L378.48 153.524V10.7296Z" fill="#C4C4C4"/>
</mask>
<g mask="url(#mask1_73_0)">
<path d="M743.161 -75.7709C758.291 -70.032 789.333 -58.5542 792.463 -58.5542M725.944 -71.858C738.466 -66.38 766.795 -54.7978 779.942 -52.2936C793.089 -49.7893 808.898 -48.1198 815.158 -47.5981M683.685 -62.4671C706.119 -59.3368 754.43 -51.9805 768.204 -47.5981C781.977 -43.2157 802.115 -37.9463 810.463 -35.8595M668.816 -58.5542C702.206 -50.9893 770.082 -35.8595 774.464 -35.8595C778.847 -35.8595 791.942 -30.6423 797.941 -28.0337M629.687 -47.5981C661.773 -43.1635 727.666 -33.6682 734.553 -31.164C741.439 -28.6598 764.03 -25.4251 774.464 -24.1208M779.942 -14.7299C733.248 -17.8602 636.574 -24.1208 623.427 -24.1208C610.28 -24.1208 591.863 -36.1203 584.298 -42.1201M779.942 -0.643513L557.69 -28.0337M500.562 -14.7299L768.204 11.8777M774.464 25.1815L618.731 4.05195C570.472 0.660782 473.016 -5.96503 469.259 -5.33897C465.503 -4.71291 407.175 10.5734 378.48 18.1383M378.48 33.0073L469.259 11.8777C517.518 13.9646 614.975 18.1383 618.731 18.1383C623.427 18.1383 753.335 36.9202 758.813 37.7027C763.195 38.3288 766.899 37.9636 768.204 37.7027M768.204 54.1369C766.638 54.6586 761.943 55.5455 755.682 54.9194C749.422 54.2934 661.773 34.8333 618.731 25.1815L469.259 29.0944L373.785 44.7459M378.48 54.9194L618.731 37.7027C654.469 46.0502 727.666 62.9017 734.553 63.5278C741.439 64.1538 747.857 66.3972 750.204 67.4407H768.204M750.204 83.0922L618.731 49.4414C581.168 54.1369 504.945 63.5278 500.562 63.5278C496.18 63.5278 417.348 66.1364 378.48 67.4407M378.48 76.8316L471.607 80.7445L618.731 59.6149L774.464 104.222M693.859 95.6134L618.731 71.3535L469.259 99.5263L358.133 83.0922M378.48 99.5263L474.737 115.96L618.731 83.0922L710.293 115.96M648.469 115.96L614.036 99.5263L469.259 135.525L365.959 115.96M365.959 141.003L479.433 157.437" stroke="#D844EB" stroke-width="3"/>
</g>
</g>
<path d="M0 108.555L228.433 52.2354V124.495L0 180.814V108.555Z" fill="#DD0ED6"/>
<path d="M147.729 141.383L376.162 85.064V157.323L147.729 213.643V141.383Z" fill="#FDE565"/>
<path d="M552.248 238.209V168.009L672.672 138.319V208.519L552.248 238.209Z" stroke="#5F2BBA" stroke-width="2"/>
</svg>
