<svg width="443" height="243" viewBox="0 0 443 243" fill="none" xmlns="http://www.w3.org/2000/svg">
<path d="M79.6816 40.3457C79.6816 53.1074 76.5176 62.916 70.1895 69.7715C63.8613 76.627 54.791 80.0547 42.9785 80.0547C31.166 80.0547 22.0957 76.627 15.7676 69.7715C9.43945 62.916 6.27539 53.0723 6.27539 40.2402C6.27539 27.4082 9.43945 17.6172 15.7676 10.8672C22.1309 4.08203 31.2363 0.689453 43.084 0.689453C54.9316 0.689453 63.9844 4.09961 70.2422 10.9199C76.5352 17.7402 79.6816 27.5488 79.6816 40.3457ZM23.4141 40.3457C23.4141 48.959 25.0488 55.4453 28.3184 59.8047C31.5879 64.1641 36.4746 66.3438 42.9785 66.3438C56.0215 66.3438 62.543 57.6777 62.543 40.3457C62.543 22.9785 56.0566 14.2949 43.084 14.2949C36.5801 14.2949 31.6758 16.4922 28.3711 20.8867C25.0664 25.2461 23.4141 31.7324 23.4141 40.3457ZM164.057 79H143.279L109.74 20.6758H109.266C109.934 30.9766 110.268 38.3242 110.268 42.7188V79H95.6602V1.90234H116.279L149.766 59.6465H150.135C149.607 49.627 149.344 42.543 149.344 38.3945V1.90234H164.057V79ZM183.516 79V1.90234H199.863V65.5H231.135V79H183.516ZM244.582 79V1.90234H260.93V79H244.582ZM348.732 79H327.955L294.416 20.6758H293.941C294.609 30.9766 294.943 38.3242 294.943 42.7188V79H280.336V1.90234H300.955L334.441 59.6465H334.811C334.283 49.627 334.02 42.543 334.02 38.3945V1.90234H348.732V79ZM412.594 79H368.191V1.90234H412.594V15.2969H384.539V32.2246H410.643V45.6191H384.539V65.5H412.594V79Z" fill="#FF00FD"/>
<mask id="mask0_747_2" style="mask-type:alpha" maskUnits="userSpaceOnUse" x="6" y="4" width="407" height="81">
<path d="M79.6816 44.3457C79.6816 57.1074 76.5176 66.916 70.1895 73.7715C63.8613 80.627 54.791 84.0547 42.9785 84.0547C31.166 84.0547 22.0957 80.627 15.7676 73.7715C9.43945 66.916 6.27539 57.0723 6.27539 44.2402C6.27539 31.4082 9.43945 21.6172 15.7676 14.8672C22.1309 8.08203 31.2363 4.68945 43.084 4.68945C54.9316 4.68945 63.9844 8.09961 70.2422 14.9199C76.5352 21.7402 79.6816 31.5488 79.6816 44.3457ZM23.4141 44.3457C23.4141 52.959 25.0488 59.4453 28.3184 63.8047C31.5879 68.1641 36.4746 70.3438 42.9785 70.3438C56.0215 70.3438 62.543 61.6777 62.543 44.3457C62.543 26.9785 56.0566 18.2949 43.084 18.2949C36.5801 18.2949 31.6758 20.4922 28.3711 24.8867C25.0664 29.2461 23.4141 35.7324 23.4141 44.3457ZM164.057 83H143.279L109.74 24.6758H109.266C109.934 34.9766 110.268 42.3242 110.268 46.7188V83H95.6602V5.90234H116.279L149.766 63.6465H150.135C149.607 53.627 149.344 46.543 149.344 42.3945V5.90234H164.057V83ZM183.516 83V5.90234H199.863V69.5H231.135V83H183.516ZM244.582 83V5.90234H260.93V83H244.582ZM348.732 83H327.955L294.416 24.6758H293.941C294.609 34.9766 294.943 42.3242 294.943 46.7188V83H280.336V5.90234H300.955L334.441 63.6465H334.811C334.283 53.627 334.02 46.543 334.02 42.3945V5.90234H348.732V83ZM412.594 83H368.191V5.90234H412.594V19.2969H384.539V36.2246H410.643V49.6191H384.539V69.5H412.594V83Z" fill="#FF00FD"/>
</mask>
<g mask="url(#mask0_747_2)">
<path d="M168 -26L0 10.5" stroke="#4C15A0" stroke-width="2"/>
<path d="M168 -20L0 16.5" stroke="#4C15A0" stroke-width="2"/>
<path d="M168 -13L0 23.5" stroke="#4C15A0" stroke-width="2"/>
<path d="M168 -6L0 30.5" stroke="#4C15A0" stroke-width="2"/>
<path d="M169 1L1 37.5" stroke="#4C15A0" stroke-width="2"/>
<path d="M169 8L1 44.5" stroke="#4C15A0" stroke-width="2"/>
<path d="M169 15L1 51.5" stroke="#4C15A0" stroke-width="2"/>
<path d="M169 22L1 58.5" stroke="#4C15A0" stroke-width="2"/>
<path d="M170 29L2 65.5" stroke="#4C15A0" stroke-width="2"/>
<path d="M170 36L2 72.5" stroke="#4C15A0" stroke-width="2"/>
<path d="M170 44L2 80.5" stroke="#4C15A0" stroke-width="2"/>
<path d="M170 51L2 87.5" stroke="#4C15A0" stroke-width="2"/>
<path d="M170 58L2 94.5" stroke="#4C15A0" stroke-width="2"/>
<path d="M170 65L2 101.5" stroke="#4C15A0" stroke-width="2"/>
<path d="M170 72L2 108.5" stroke="#4C15A0" stroke-width="2"/>
<path d="M169 80L1 116.5" stroke="#4C15A0" stroke-width="2"/>
</g>
<path d="M47.2485 242L46.2925 242.293L46.5094 243H47.2485V242ZM30.9204 188.794L31.8764 188.501L31.6596 187.794H30.9204V188.794ZM30.5029 188.794V187.794H29.4472L29.5044 188.849L30.5029 188.794ZM31.3843 242V243H32.3843V242H31.3843ZM18.5352 242H17.5352V243H18.5352V242ZM18.5352 174.183V173.183H17.5352V174.183H18.5352ZM38.1104 174.183L39.0656 173.887L38.8477 173.183H38.1104V174.183ZM54.1602 226.043L53.2049 226.339L53.4228 227.043H54.1602V226.043ZM54.4385 226.043V227.043H55.1627L55.3886 226.355L54.4385 226.043ZM71.4624 174.183V173.183H70.7382L70.5123 173.871L71.4624 174.183ZM91.0376 174.183H92.0376V173.183H91.0376V174.183ZM91.0376 242V243H92.0376V242H91.0376ZM77.6318 242H76.6318V243H77.6318V242ZM77.6782 204.659L76.6787 204.627L76.6785 204.635L76.6783 204.643L77.6782 204.659ZM78.3276 188.887L79.3267 188.931L79.3721 187.887H78.3276V188.887ZM77.9102 188.887V187.887H77.1866L76.9603 188.574L77.9102 188.887ZM60.4224 242V243H61.1459L61.3722 242.313L60.4224 242ZM48.2045 241.707L31.8764 188.501L29.9644 189.088L46.2925 242.293L48.2045 241.707ZM30.9204 187.794H30.5029V189.794H30.9204V187.794ZM29.5044 188.849C30.0922 199.677 30.3843 206.871 30.3843 210.457H32.3843C32.3843 206.807 32.0888 199.559 31.5015 188.74L29.5044 188.849ZM30.3843 210.457V242H32.3843V210.457H30.3843ZM31.3843 241H18.5352V243H31.3843V241ZM19.5352 242V174.183H17.5352V242H19.5352ZM18.5352 175.183H38.1104V173.183H18.5352V175.183ZM37.1551 174.478L53.2049 226.339L55.1155 225.747L39.0656 173.887L37.1551 174.478ZM54.1602 227.043H54.4385V225.043H54.1602V227.043ZM55.3886 226.355L72.4125 174.495L70.5123 173.871L53.4884 225.731L55.3886 226.355ZM71.4624 175.183H91.0376V173.183H71.4624V175.183ZM90.0376 174.183V242H92.0376V174.183H90.0376ZM91.0376 241H77.6318V243H91.0376V241ZM78.6318 242V209.9H76.6318V242H78.6318ZM78.6318 209.9C78.6318 208.392 78.6472 206.65 78.6781 204.674L76.6783 204.643C76.6474 206.626 76.6318 208.379 76.6318 209.9H78.6318ZM78.6777 204.69C78.7393 202.718 78.9555 197.468 79.3267 188.931L77.3286 188.844C76.9576 197.376 76.7408 202.641 76.6787 204.627L78.6777 204.69ZM78.3276 187.887H77.9102V189.887H78.3276V187.887ZM76.9603 188.574L59.4725 241.687L61.3722 242.313L78.86 189.2L76.9603 188.574ZM60.4224 241H47.2485V243H60.4224V241ZM147.212 242V243H148.212V242H147.212ZM108.154 242H107.154V243H108.154V242ZM108.154 174.183V173.183H107.154V174.183H108.154ZM147.212 174.183H148.212V173.183H147.212V174.183ZM147.212 185.965V186.965H148.212V185.965H147.212ZM122.534 185.965V184.965H121.534V185.965H122.534ZM122.534 200.855H121.534V201.855H122.534V200.855ZM145.496 200.855H146.496V199.855H145.496V200.855ZM145.496 212.637V213.637H146.496V212.637H145.496ZM122.534 212.637V211.637H121.534V212.637H122.534ZM122.534 230.125H121.534V231.125H122.534V230.125ZM147.212 230.125H148.212V229.125H147.212V230.125ZM147.212 241H108.154V243H147.212V241ZM109.154 242V174.183H107.154V242H109.154ZM108.154 175.183H147.212V173.183H108.154V175.183ZM146.212 174.183V185.965H148.212V174.183H146.212ZM147.212 184.965H122.534V186.965H147.212V184.965ZM121.534 185.965V200.855H123.534V185.965H121.534ZM122.534 201.855H145.496V199.855H122.534V201.855ZM144.496 200.855V212.637H146.496V200.855H144.496ZM145.496 211.637H122.534V213.637H145.496V211.637ZM121.534 212.637V230.125H123.534V212.637H121.534ZM122.534 231.125H147.212V229.125H122.534V231.125ZM146.212 230.125V242H148.212V230.125H146.212ZM200.464 242V243H201.464V242H200.464ZM161.406 242H160.406V243H161.406V242ZM161.406 174.183V173.183H160.406V174.183H161.406ZM200.464 174.183H201.464V173.183H200.464V174.183ZM200.464 185.965V186.965H201.464V185.965H200.464ZM175.786 185.965V184.965H174.786V185.965H175.786ZM175.786 200.855H174.786V201.855H175.786V200.855ZM198.748 200.855H199.748V199.855H198.748V200.855ZM198.748 212.637V213.637H199.748V212.637H198.748ZM175.786 212.637V211.637H174.786V212.637H175.786ZM175.786 230.125H174.786V231.125H175.786V230.125ZM200.464 230.125H201.464V229.125H200.464V230.125ZM200.464 241H161.406V243H200.464V241ZM162.406 242V174.183H160.406V242H162.406ZM161.406 175.183H200.464V173.183H161.406V175.183ZM199.464 174.183V185.965H201.464V174.183H199.464ZM200.464 184.965H175.786V186.965H200.464V184.965ZM174.786 185.965V200.855H176.786V185.965H174.786ZM175.786 201.855H198.748V199.855H175.786V201.855ZM197.748 200.855V212.637H199.748V200.855H197.748ZM198.748 211.637H175.786V213.637H198.748V211.637ZM174.786 212.637V230.125H176.786V212.637H174.786ZM175.786 231.125H200.464V229.125H175.786V231.125ZM199.464 230.125V242H201.464V230.125H199.464ZM240.82 242V243H241.82V242H240.82ZM226.44 242H225.44V243H226.44V242ZM226.44 186.15H227.44V185.15H226.44V186.15ZM208.025 186.15H207.025V187.15H208.025V186.15ZM208.025 174.183V173.183H207.025V174.183H208.025ZM259.236 174.183H260.236V173.183H259.236V174.183ZM259.236 186.15V187.15H260.236V186.15H259.236ZM240.82 186.15V185.15H239.82V186.15H240.82ZM240.82 241H226.44V243H240.82V241ZM227.44 242V186.15H225.44V242H227.44ZM226.44 185.15H208.025V187.15H226.44V185.15ZM209.025 186.15V174.183H207.025V186.15H209.025ZM208.025 175.183H259.236V173.183H208.025V175.183ZM258.236 174.183V186.15H260.236V174.183H258.236ZM259.236 185.15H240.82V187.15H259.236V185.15ZM239.82 186.15V242H241.82V186.15H239.82ZM349.551 174.183H350.551V173.183H349.551V174.183ZM346.165 231.238L345.306 230.725L345.303 230.73L346.165 231.238ZM301.123 236.248L300.442 236.981L300.445 236.983L301.123 236.248ZM293.887 174.183V173.183H292.887V174.183H293.887ZM308.22 174.183H309.22V173.183H308.22V174.183ZM311.375 227.203L310.617 227.855L311.375 227.203ZM332.017 227.203L331.259 226.55L331.259 226.55L332.017 227.203ZM335.217 174.183V173.183H334.217V174.183H335.217ZM348.551 174.183V218.064H350.551V174.183H348.551ZM348.551 218.064C348.551 222.919 347.459 227.128 345.306 230.725L347.023 231.752C349.385 227.803 350.551 223.229 350.551 218.064H348.551ZM345.303 230.73C343.186 234.319 340.111 237.078 336.041 239.009L336.898 240.816C341.302 238.727 344.69 235.704 347.026 231.747L345.303 230.73ZM336.041 239.009C331.966 240.943 327.109 241.928 321.44 241.928V243.928C327.338 243.928 332.5 242.903 336.898 240.816L336.041 239.009ZM321.44 241.928C312.887 241.928 306.387 239.746 301.801 235.513L300.445 236.983C305.508 241.656 312.553 243.928 321.44 243.928V241.928ZM301.804 235.516C297.22 231.255 294.887 225.417 294.887 217.879H292.887C292.887 225.865 295.378 232.273 300.442 236.981L301.804 235.516ZM294.887 217.879V174.183H292.887V217.879H294.887ZM293.887 175.183H308.22V173.183H293.887V175.183ZM307.22 174.183V215.699H309.22V174.183H307.22ZM307.22 215.699C307.22 221.025 308.286 225.147 310.617 227.855L312.132 226.55C310.257 224.372 309.22 220.825 309.22 215.699H307.22ZM310.617 227.855C312.989 230.611 316.814 231.867 321.812 231.867V229.867C317.099 229.867 313.966 228.68 312.132 226.55L310.617 227.855ZM321.812 231.867C326.667 231.867 330.408 230.605 332.775 227.855L331.259 226.55C329.42 228.687 326.357 229.867 321.812 229.867V231.867ZM332.774 227.856C335.135 225.118 336.217 220.966 336.217 215.606H334.217C334.217 220.761 333.166 224.339 331.259 226.55L332.774 227.856ZM336.217 215.606V174.183H334.217V215.606H336.217ZM335.217 175.183H349.551V173.183H335.217V175.183ZM380.537 206.097H379.537V207.097H380.537V206.097ZM395.195 203.499L395.815 204.284L395.821 204.279L395.195 203.499ZM395.706 188.377L395.044 189.127L395.051 189.133L395.706 188.377ZM380.537 185.965V184.965H379.537V185.965H380.537ZM406.143 212.081L405.497 211.317L405.495 211.319L406.143 212.081ZM380.537 217.879V216.879H379.537V217.879H380.537ZM380.537 242V243H381.537V242H380.537ZM366.157 242H365.157V243H366.157V242ZM366.157 174.183V173.183H365.157V174.183H366.157ZM406.56 179.517L405.92 180.285L405.926 180.29L406.56 179.517ZM380.537 207.097H385.269V205.097H380.537V207.097ZM385.269 207.097C389.793 207.097 393.366 206.216 395.815 204.284L394.576 202.714C392.633 204.246 389.588 205.097 385.269 205.097V207.097ZM395.821 204.279C398.298 202.29 399.489 199.425 399.489 195.845H397.489C397.489 198.945 396.483 201.183 394.569 202.719L395.821 204.279ZM399.489 195.845C399.489 192.298 398.508 189.483 396.361 187.621L395.051 189.133C396.614 190.487 397.489 192.651 397.489 195.845H399.489ZM396.367 187.627C394.276 185.784 391.108 184.965 387.078 184.965V186.965C390.902 186.965 393.486 187.754 395.044 189.127L396.367 187.627ZM387.078 184.965H380.537V186.965H387.078V184.965ZM379.537 185.965V206.097H381.537V185.965H379.537ZM412.008 195.335C412.008 202.409 409.8 207.682 405.497 211.317L406.788 212.845C411.638 208.748 414.008 202.857 414.008 195.335H412.008ZM405.495 211.319C401.191 214.978 394.977 216.879 386.707 216.879V218.879C395.259 218.879 402.002 216.914 406.79 212.842L405.495 211.319ZM386.707 216.879H380.537V218.879H386.707V216.879ZM379.537 217.879V242H381.537V217.879H379.537ZM380.537 241H366.157V243H380.537V241ZM367.157 242V174.183H365.157V242H367.157ZM366.157 175.183H387.82V173.183H366.157V175.183ZM387.82 175.183C395.921 175.183 401.901 176.936 405.92 180.285L407.2 178.749C402.684 174.985 396.171 173.183 387.82 173.183V175.183ZM405.926 180.29C409.934 183.577 412.008 188.529 412.008 195.335H414.008C414.008 188.101 411.783 182.508 407.194 178.744L405.926 180.29Z" fill="#FDE565" fill-opacity="0.6"/>
<path d="M37.6406 232L21.1406 178.234H20.7188C21.3125 189.172 21.6094 196.469 21.6094 200.125V232H8.625V163.469H28.4062L44.625 215.875H44.9062L62.1094 163.469H81.8906V232H68.3438V199.562C68.3438 198.031 68.3594 196.266 68.3906 194.266C68.4531 192.266 68.6719 186.953 69.0469 178.328H68.625L50.9531 232H37.6406ZM138.656 232H99.1875V163.469H138.656V175.375H113.719V190.422H136.922V202.328H113.719V220H138.656V232ZM192.469 232H153V163.469H192.469V175.375H167.531V190.422H190.734V202.328H167.531V220H192.469V232ZM233.25 232H218.719V175.562H200.109V163.469H251.859V175.562H233.25V232ZM343.125 163.469V207.812C343.125 212.875 341.984 217.312 339.703 221.125C337.453 224.938 334.188 227.859 329.906 229.891C325.625 231.922 320.562 232.938 314.719 232.938C305.906 232.938 299.062 230.688 294.188 226.188C289.312 221.656 286.875 215.469 286.875 207.625V163.469H301.359V205.422C301.359 210.703 302.422 214.578 304.547 217.047C306.672 219.516 310.188 220.75 315.094 220.75C319.844 220.75 323.281 219.516 325.406 217.047C327.562 214.547 328.641 210.641 328.641 205.328V163.469H343.125ZM374.438 195.719H379.219C383.688 195.719 387.031 194.844 389.25 193.094C391.469 191.312 392.578 188.734 392.578 185.359C392.578 181.953 391.641 179.438 389.766 177.812C387.922 176.188 385.016 175.375 381.047 175.375H374.438V195.719ZM407.25 184.844C407.25 192.219 404.938 197.859 400.312 201.766C395.719 205.672 389.172 207.625 380.672 207.625H374.438V232H359.906V163.469H381.797C390.109 163.469 396.422 165.266 400.734 168.859C405.078 172.422 407.25 177.75 407.25 184.844Z" fill="#FDE565"/>
<mask id="mask1_747_2" style="mask-type:alpha" maskUnits="userSpaceOnUse" x="9" y="163" width="400" height="70">
<path d="M38.6406 232L22.1406 178.234H21.7188C22.3125 189.172 22.6094 196.469 22.6094 200.125V232H9.625V163.469H29.4062L45.625 215.875H45.9062L63.1094 163.469H82.8906V232H69.3438V199.562C69.3438 198.031 69.3594 196.266 69.3906 194.266C69.4531 192.266 69.6719 186.953 70.0469 178.328H69.625L51.9531 232H38.6406ZM139.656 232H100.188V163.469H139.656V175.375H114.719V190.422H137.922V202.328H114.719V220H139.656V232ZM193.469 232H154V163.469H193.469V175.375H168.531V190.422H191.734V202.328H168.531V220H193.469V232ZM234.25 232H219.719V175.562H201.109V163.469H252.859V175.562H234.25V232ZM344.125 163.469V207.812C344.125 212.875 342.984 217.312 340.703 221.125C338.453 224.938 335.188 227.859 330.906 229.891C326.625 231.922 321.562 232.938 315.719 232.938C306.906 232.938 300.062 230.688 295.188 226.188C290.312 221.656 287.875 215.469 287.875 207.625V163.469H302.359V205.422C302.359 210.703 303.422 214.578 305.547 217.047C307.672 219.516 311.188 220.75 316.094 220.75C320.844 220.75 324.281 219.516 326.406 217.047C328.562 214.547 329.641 210.641 329.641 205.328V163.469H344.125ZM375.438 195.719H380.219C384.688 195.719 388.031 194.844 390.25 193.094C392.469 191.312 393.578 188.734 393.578 185.359C393.578 181.953 392.641 179.438 390.766 177.812C388.922 176.188 386.016 175.375 382.047 175.375H375.438V195.719ZM408.25 184.844C408.25 192.219 405.938 197.859 401.312 201.766C396.719 205.672 390.172 207.625 381.672 207.625H375.438V232H360.906V163.469H382.797C391.109 163.469 397.422 165.266 401.734 168.859C406.078 172.422 408.25 177.75 408.25 184.844Z" fill="white"/>
</mask>
<g mask="url(#mask1_747_2)">
<path d="M436 130L268 166.5" stroke="#4D16A2" stroke-width="2"/>
<path d="M436 137L268 173.5" stroke="#4D16A2" stroke-width="2"/>
<path d="M436 144L268 180.5" stroke="#4D16A2" stroke-width="2"/>
<path d="M437 151L269 187.5" stroke="#4D16A2" stroke-width="2"/>
<path d="M437 158L269 194.5" stroke="#4D16A2" stroke-width="2"/>
<path d="M437 165L269 201.5" stroke="#4D16A2" stroke-width="2"/>
<path d="M437 172L269 208.5" stroke="#4D16A2" stroke-width="2"/>
<path d="M438 179L270 215.5" stroke="#4D16A2" stroke-width="2"/>
<path d="M438 186L270 222.5" stroke="#4D16A2" stroke-width="2"/>
<path d="M438 194L270 230.5" stroke="#4D16A2" stroke-width="2"/>
<path d="M438 201L270 237.5" stroke="#4D16A2" stroke-width="2"/>
<path d="M438 208L270 244.5" stroke="#4D16A2" stroke-width="2"/>
<path d="M438 215L270 251.5" stroke="#4D16A2" stroke-width="2"/>
<path d="M438 222L270 258.5" stroke="#4D16A2" stroke-width="2"/>
<path d="M437 230L269 266.5" stroke="#4D16A2" stroke-width="2"/>
</g>
<path d="M33.9116 115.6C33.9116 119.401 32.6665 122.315 30.1763 124.34C27.686 126.366 24.1416 127.378 19.543 127.378H15.7578V141H9.80615V104.593H20.29C24.8389 104.593 28.2422 105.522 30.5 107.382C32.7744 109.241 33.9116 111.98 33.9116 115.6ZM15.7578 122.373H18.9204C21.9751 122.373 24.2163 121.842 25.644 120.779C27.0718 119.717 27.7856 118.057 27.7856 115.799C27.7856 113.707 27.1465 112.146 25.8682 111.117C24.5898 110.088 22.5977 109.573 19.8916 109.573H15.7578V122.373ZM47.1348 121.526H51.2686C54.041 121.526 56.0498 121.012 57.2949 119.982C58.54 118.953 59.1626 117.426 59.1626 115.4C59.1626 113.342 58.4902 111.864 57.1455 110.968C55.8008 110.071 53.7754 109.623 51.0693 109.623H47.1348V121.526ZM47.1348 126.457V141H41.1831V104.593H51.4678C56.166 104.593 59.644 105.473 61.9019 107.232C64.1597 108.992 65.2886 111.648 65.2886 115.201C65.2886 119.733 62.9312 122.962 58.2163 124.888L68.501 141H61.7275L53.0117 126.457H47.1348ZM106.128 122.747C106.128 128.673 104.643 133.28 101.671 136.567C98.7158 139.854 94.5239 141.498 89.0952 141.498C83.6001 141.498 79.375 139.871 76.4199 136.617C73.4814 133.347 72.0122 128.707 72.0122 122.697C72.0122 116.687 73.4897 112.072 76.4448 108.851C79.4165 105.63 83.6499 104.02 89.145 104.02C94.5571 104.02 98.7407 105.655 101.696 108.926C104.651 112.196 106.128 116.803 106.128 122.747ZM78.3374 122.747C78.3374 127.229 79.2422 130.632 81.0518 132.957C82.8613 135.264 85.5425 136.418 89.0952 136.418C92.6313 136.418 95.2959 135.272 97.0889 132.981C98.8984 130.69 99.8032 127.279 99.8032 122.747C99.8032 118.281 98.9067 114.894 97.1138 112.586C95.3374 110.279 92.6812 109.125 89.145 109.125C85.5757 109.125 82.8779 110.279 81.0518 112.586C79.2422 114.894 78.3374 118.281 78.3374 122.747ZM128.839 121.252H142.237V139.531C140.045 140.245 137.937 140.751 135.912 141.05C133.903 141.349 131.728 141.498 129.387 141.498C123.875 141.498 119.625 139.871 116.637 136.617C113.649 133.347 112.155 128.74 112.155 122.796C112.155 116.936 113.84 112.354 117.21 109.05C120.58 105.73 125.22 104.07 131.13 104.07C134.932 104.07 138.535 104.8 141.938 106.261L139.846 111.217C136.891 109.855 133.936 109.175 130.981 109.175C127.096 109.175 124.025 110.395 121.767 112.835C119.509 115.276 118.38 118.613 118.38 122.846C118.38 127.295 119.393 130.682 121.418 133.006C123.46 135.314 126.391 136.468 130.209 136.468C132.135 136.468 134.193 136.227 136.385 135.746V126.357H128.839V121.252ZM156.954 121.526H161.088C163.86 121.526 165.869 121.012 167.114 119.982C168.359 118.953 168.982 117.426 168.982 115.4C168.982 113.342 168.31 111.864 166.965 110.968C165.62 110.071 163.595 109.623 160.889 109.623H156.954V121.526ZM156.954 126.457V141H151.002V104.593H161.287C165.985 104.593 169.463 105.473 171.721 107.232C173.979 108.992 175.108 111.648 175.108 115.201C175.108 119.733 172.75 122.962 168.036 124.888L178.32 141H171.547L162.831 126.457H156.954ZM206.211 141L202.575 130.89H188.655L185.094 141H178.818L192.44 104.443H198.915L212.536 141H206.211ZM201.006 125.76L197.595 115.849C197.346 115.185 196.997 114.139 196.549 112.711C196.117 111.283 195.818 110.237 195.652 109.573C195.204 111.615 194.548 113.848 193.685 116.272L190.398 125.76H201.006ZM233.081 141L222.522 110.594H222.323C222.605 115.11 222.746 119.343 222.746 123.294V141H217.342V104.593H225.734L235.845 133.554H235.994L246.403 104.593H254.82V141H249.093V122.996C249.093 121.186 249.134 118.829 249.217 115.923C249.317 113.018 249.4 111.258 249.466 110.644H249.267L238.335 141H233.081ZM280.146 141L269.587 110.594H269.388C269.67 115.11 269.812 119.343 269.812 123.294V141H264.408V104.593H272.8L282.91 133.554H283.06L293.469 104.593H301.886V141H296.158V122.996C296.158 121.186 296.2 118.829 296.283 115.923C296.382 113.018 296.465 111.258 296.532 110.644H296.333L285.4 141H280.146ZM334.06 141L330.424 130.89H316.503L312.942 141H306.667L320.289 104.443H326.763L340.385 141H334.06ZM328.855 125.76L325.443 115.849C325.194 115.185 324.846 114.139 324.397 112.711C323.966 111.283 323.667 110.237 323.501 109.573C323.053 111.615 322.397 113.848 321.534 116.272L318.247 125.76H328.855ZM357.767 141H351.815V109.698H341.107V104.593H368.475V109.698H357.767V141ZM374.078 141V104.593H380.029V141H374.078ZM405.156 109.175C401.736 109.175 399.046 110.387 397.087 112.811C395.128 115.234 394.149 118.58 394.149 122.846C394.149 127.312 395.087 130.69 396.963 132.981C398.855 135.272 401.586 136.418 405.156 136.418C406.7 136.418 408.194 136.269 409.638 135.97C411.083 135.654 412.585 135.256 414.146 134.774V139.879C411.29 140.958 408.053 141.498 404.434 141.498C399.104 141.498 395.012 139.888 392.157 136.667C389.301 133.43 387.874 128.806 387.874 122.796C387.874 119.011 388.562 115.699 389.94 112.86C391.335 110.021 393.344 107.847 395.967 106.336C398.59 104.825 401.669 104.07 405.206 104.07C408.924 104.07 412.361 104.85 415.515 106.411L413.374 111.366C412.145 110.785 410.842 110.279 409.464 109.847C408.103 109.399 406.667 109.175 405.156 109.175Z" fill="#FDE565"/>
</svg>
